<mxfile host="app.diagrams.net" modified="2023-11-25T16:13:08.757Z" agent="Mozilla/5.0 (Macintosh; Intel Mac OS X 10_15_7) AppleWebKit/537.36 (KHTML, like Gecko) Chrome/119.0.0.0 Safari/537.36" etag="LJYZx59qXi4pvh1rGfHS" version="22.1.4" type="device">
  <diagram name="Page-1" id="SwA2eOmX7EujRRqvAuO7">
    <mxGraphModel dx="1444" dy="2051" grid="1" gridSize="10" guides="1" tooltips="1" connect="1" arrows="1" fold="1" page="1" pageScale="1" pageWidth="827" pageHeight="1169" math="0" shadow="0">
      <root>
        <mxCell id="0" />
        <mxCell id="1" parent="0" />
        <mxCell id="kZNl8v2VJRBsP58nyWW6-10" value="" style="edgeStyle=orthogonalEdgeStyle;rounded=0;orthogonalLoop=1;jettySize=auto;html=1;" edge="1" parent="1" source="kZNl8v2VJRBsP58nyWW6-8" target="kZNl8v2VJRBsP58nyWW6-9">
          <mxGeometry relative="1" as="geometry">
            <Array as="points">
              <mxPoint x="210" y="40" />
            </Array>
          </mxGeometry>
        </mxCell>
        <mxCell id="kZNl8v2VJRBsP58nyWW6-12" value="" style="edgeStyle=orthogonalEdgeStyle;rounded=0;orthogonalLoop=1;jettySize=auto;html=1;" edge="1" parent="1" target="kZNl8v2VJRBsP58nyWW6-8">
          <mxGeometry relative="1" as="geometry">
            <mxPoint x="209.9999999999999" y="269.9999999999998" as="sourcePoint" />
          </mxGeometry>
        </mxCell>
        <mxCell id="kZNl8v2VJRBsP58nyWW6-8" value="Users swipes to end of video" style="ellipse;whiteSpace=wrap;html=1;aspect=fixed;" vertex="1" parent="1">
          <mxGeometry x="160" y="110" width="100" height="100" as="geometry" />
        </mxCell>
        <mxCell id="kZNl8v2VJRBsP58nyWW6-16" value="" style="edgeStyle=orthogonalEdgeStyle;rounded=0;orthogonalLoop=1;jettySize=auto;html=1;" edge="1" parent="1" source="kZNl8v2VJRBsP58nyWW6-9" target="kZNl8v2VJRBsP58nyWW6-15">
          <mxGeometry relative="1" as="geometry" />
        </mxCell>
        <mxCell id="kZNl8v2VJRBsP58nyWW6-9" value="Users swipes to end of video" style="ellipse;whiteSpace=wrap;html=1;aspect=fixed;" vertex="1" parent="1">
          <mxGeometry x="314" y="-20" width="100" height="100" as="geometry" />
        </mxCell>
        <mxCell id="kZNl8v2VJRBsP58nyWW6-18" value="" style="edgeStyle=orthogonalEdgeStyle;rounded=0;orthogonalLoop=1;jettySize=auto;html=1;" edge="1" parent="1" source="kZNl8v2VJRBsP58nyWW6-15" target="kZNl8v2VJRBsP58nyWW6-17">
          <mxGeometry relative="1" as="geometry" />
        </mxCell>
        <mxCell id="kZNl8v2VJRBsP58nyWW6-15" value="Keyword watchtime&lt;br&gt;data send to server" style="shape=parallelogram;perimeter=parallelogramPerimeter;whiteSpace=wrap;html=1;fixedSize=1;" vertex="1" parent="1">
          <mxGeometry x="490" width="146" height="60" as="geometry" />
        </mxCell>
        <mxCell id="kZNl8v2VJRBsP58nyWW6-20" value="" style="edgeStyle=orthogonalEdgeStyle;rounded=0;orthogonalLoop=1;jettySize=auto;html=1;" edge="1" parent="1" source="kZNl8v2VJRBsP58nyWW6-17" target="kZNl8v2VJRBsP58nyWW6-19">
          <mxGeometry relative="1" as="geometry" />
        </mxCell>
        <mxCell id="kZNl8v2VJRBsP58nyWW6-17" value="Server uses keyword watchtime and datamuse to make similarity matrix&amp;nbsp;" style="whiteSpace=wrap;html=1;" vertex="1" parent="1">
          <mxGeometry x="713" y="-25" width="120" height="110" as="geometry" />
        </mxCell>
        <mxCell id="kZNl8v2VJRBsP58nyWW6-22" value="" style="edgeStyle=orthogonalEdgeStyle;rounded=0;orthogonalLoop=1;jettySize=auto;html=1;" edge="1" parent="1" source="kZNl8v2VJRBsP58nyWW6-19" target="kZNl8v2VJRBsP58nyWW6-21">
          <mxGeometry relative="1" as="geometry" />
        </mxCell>
        <mxCell id="kZNl8v2VJRBsP58nyWW6-19" value="With the similarity matrix, the most relevant new keyword is  calculated using the Item-based Collaborative Filtering" style="whiteSpace=wrap;html=1;" vertex="1" parent="1">
          <mxGeometry x="713" y="250" width="120" height="140" as="geometry" />
        </mxCell>
        <mxCell id="kZNl8v2VJRBsP58nyWW6-25" value="" style="edgeStyle=orthogonalEdgeStyle;rounded=0;orthogonalLoop=1;jettySize=auto;html=1;" edge="1" parent="1" source="kZNl8v2VJRBsP58nyWW6-21" target="kZNl8v2VJRBsP58nyWW6-24">
          <mxGeometry relative="1" as="geometry" />
        </mxCell>
        <mxCell id="kZNl8v2VJRBsP58nyWW6-21" value="New videos are loaded from Pexel using the the most relevant keyword as the query" style="whiteSpace=wrap;html=1;" vertex="1" parent="1">
          <mxGeometry x="516" y="270" width="120" height="100" as="geometry" />
        </mxCell>
        <mxCell id="kZNl8v2VJRBsP58nyWW6-26" style="edgeStyle=orthogonalEdgeStyle;rounded=0;orthogonalLoop=1;jettySize=auto;html=1;exitX=0;exitY=0.5;exitDx=0;exitDy=0;entryX=1;entryY=0.5;entryDx=0;entryDy=0;" edge="1" parent="1" source="kZNl8v2VJRBsP58nyWW6-24">
          <mxGeometry relative="1" as="geometry">
            <mxPoint x="259.9999999999985" y="319.9999999999998" as="targetPoint" />
          </mxGeometry>
        </mxCell>
        <mxCell id="kZNl8v2VJRBsP58nyWW6-24" value="New videos are&lt;br&gt;sent to the user" style="shape=parallelogram;perimeter=parallelogramPerimeter;whiteSpace=wrap;html=1;fixedSize=1;" vertex="1" parent="1">
          <mxGeometry x="316" y="290" width="120" height="60" as="geometry" />
        </mxCell>
        <mxCell id="kZNl8v2VJRBsP58nyWW6-31" style="edgeStyle=orthogonalEdgeStyle;rounded=0;orthogonalLoop=1;jettySize=auto;html=1;exitX=0.5;exitY=0;exitDx=0;exitDy=0;entryX=0.5;entryY=1;entryDx=0;entryDy=0;" edge="1" parent="1" source="kZNl8v2VJRBsP58nyWW6-27" target="kZNl8v2VJRBsP58nyWW6-29">
          <mxGeometry relative="1" as="geometry" />
        </mxCell>
        <mxCell id="kZNl8v2VJRBsP58nyWW6-27" value="User opens app and starts swiping" style="ellipse;whiteSpace=wrap;html=1;aspect=fixed;" vertex="1" parent="1">
          <mxGeometry x="155" y="450" width="110" height="110" as="geometry" />
        </mxCell>
        <mxCell id="kZNl8v2VJRBsP58nyWW6-29" value="Watch time per video keyword tracked" style="whiteSpace=wrap;html=1;aspect=fixed;" vertex="1" parent="1">
          <mxGeometry x="160" y="270" width="100" height="100" as="geometry" />
        </mxCell>
      </root>
    </mxGraphModel>
  </diagram>
</mxfile>
